External Loads File
version=1
nRows=84
nColumns=13
Range=5.000000e-03-10 seconds
endheader
time 	forceRightX 	forceRightY 	forceRightZ 	pointRightX 	pointRightY 	pointRightZ 	forceLeftX 	forceLeftY 	forceLeftZ 	pointLeftX 	pointLeftY 	pointLeftZ 		
2.505000 -139.694106 1125.147435 -0.000000 0.426531 0.280673 -0.107845 10.061383 -101.772266 -0.000000 0.146579 0.318200 -0.354969
2.510000 -126.771794 1152.733116 -0.000000 0.424665 0.270678 -0.107138 7.508614 -98.991555 -0.000000 0.149289 0.327380 -0.355061
2.515000 -109.932653 1181.476144 -0.000000 0.421771 0.260938 -0.108415 4.116023 -96.339390 -0.000000 0.152484 0.336457 -0.355121
2.520000 -87.728016 1210.815750 -0.000000 0.418551 0.251392 -0.108361 -0.448362 -93.767739 -0.000000 0.156190 0.345850 -0.355033
2.525000 -64.577059 1239.672953 -0.000000 0.414679 0.242098 -0.108271 -5.929434 -91.194190 -0.000000 0.160379 0.354458 -0.355016
2.530000 -36.722732 1267.556191 -0.000000 0.410372 0.233068 -0.108155 -12.578490 -88.537492 -0.000000 0.164967 0.363382 -0.354948
2.535000 -5.971894 1293.616786 -0.000000 0.405507 0.224274 -0.108069 -20.087235 -85.751247 -0.000000 0.170083 0.372093 -0.354930
2.540000 26.474989 1317.195687 -0.000000 0.400259 0.215751 -0.108070 -28.097797 -82.848384 -0.000000 0.175628 0.380547 -0.354734
2.545000 61.422941 1337.684727 -0.000000 0.394517 0.207458 -0.108035 -36.318994 -79.839679 -0.000000 0.181580 0.388947 -0.354494
2.550000 96.679048 1354.602540 -0.000000 0.388389 0.199682 -0.108045 -44.270013 -76.812821 -0.000000 0.187995 0.397094 -0.354396
2.555000 132.532021 1367.406169 -0.000000 0.381834 0.192220 -0.108041 -51.676407 -73.772547 -0.000000 0.194804 0.404946 -0.354413
2.560000 167.388402 1375.664119 -0.000000 0.374906 0.185133 -0.108038 -58.231364 -70.763998 -0.000000 0.201846 0.412384 -0.354265
2.565000 229.440252 1374.349973 -0.000000 0.367683 0.178701 -0.108109 -65.177289 -66.487190 -0.000000 0.216242 0.419527 -0.362289
2.570000 272.070526 1368.949126 -0.000000 0.360118 0.172751 -0.108167 -70.156535 -63.043113 -0.000000 0.226258 0.426199 -0.365147
2.575000 298.625616 1359.551502 -0.000000 0.352328 0.166995 -0.108232 -73.617139 -60.475445 -0.000000 0.233193 0.432345 -0.364337
2.580000 313.327228 1345.006512 -0.000000 0.344473 0.161887 -0.108191 -76.092044 -58.545994 -0.000000 0.238449 0.438018 -0.361360
2.585000 323.860032 1322.627237 -0.000000 0.336467 0.157142 -0.108043 -78.247511 -56.642416 -0.000000 0.243499 0.443354 -0.357835
2.590000 335.318810 1289.843297 -0.000000 0.328413 0.152685 -0.108111 -80.565083 -54.162848 -0.000000 0.249643 0.448340 -0.355035
2.595000 353.140496 1243.618214 -0.000000 0.320235 0.149003 -0.107968 -83.421498 -50.345490 -0.000000 0.258461 0.452710 -0.354827
2.600000 365.571360 1185.694637 -0.000000 0.312064 0.145693 -0.107806 -86.365611 -45.503055 -0.000000 0.267222 0.456574 -0.354983
2.605000 371.659060 1115.585686 -0.000000 0.304018 0.142896 -0.107619 -89.316826 -39.380018 -0.000000 0.275943 0.459898 -0.355604
2.610000 371.806651 1032.887651 -0.000000 0.296209 0.140765 -0.107452 -92.159886 -31.756307 -0.000000 0.284997 0.462524 -0.355917
2.615000 365.092820 938.294442 -0.000000 0.288517 0.139138 -0.107346 -94.657292 -22.671999 -0.000000 0.294066 0.464535 -0.356142
2.620000 351.895572 832.749537 -0.000000 0.281067 0.138050 -0.107248 -96.549186 -12.137243 -0.000000 0.303453 0.466081 -0.356269
2.625000 330.698624 718.698198 -0.000000 0.273880 0.137348 -0.107215 -97.517012 -0.413468 -0.000000 0.312453 0.467168 -0.356647
2.630000 303.602195 597.701579 -0.000000 0.266669 0.137632 -0.106780 -97.332065 12.635883 -0.000000 0.321120 0.467709 -0.356999
2.635000 271.509047 472.305804 -0.000000 0.259819 0.137892 -0.106780 -95.864710 27.067978 -0.000000 0.329769 0.467795 -0.357260
2.640000 236.167247 344.969657 -0.000000 0.253043 0.138907 -0.106599 -93.146791 43.208753 -0.000000 0.338062 0.467562 -0.357769
2.645000 199.703499 217.845378 -0.000000 0.246009 0.140442 -0.106313 -89.204156 61.746743 -0.000000 0.346514 0.466707 -0.357680
2.650000 162.426631 94.149489 -0.000000 0.239001 0.142803 -0.106046 -84.303639 83.088590 -0.000000 0.354629 0.464814 -0.358163
2.655000 125.006898 -23.169019 -0.000000 0.231859 0.145712 -0.105701 -78.854190 107.783600 -0.000000 0.362309 0.462872 -0.358480
2.660000 87.889117 -131.567319 -0.000000 0.224550 0.149259 -0.105419 -73.069897 136.622162 -0.000000 0.369644 0.460039 -0.358668
2.665000 51.390790 -228.249683 -0.000000 0.217336 0.153168 -0.105013 -67.418002 170.064820 -0.000000 0.376582 0.456704 -0.358732
2.670000 16.197642 -310.819287 -0.000000 0.210533 0.157369 -0.104546 -62.295374 208.326511 -0.000000 0.383092 0.452723 -0.358888
2.675000 -17.168541 -377.348237 -0.000000 0.204051 0.162337 -0.104348 -57.714633 251.295258 -0.000000 0.389173 0.448139 -0.359046
2.680000 -47.647490 -426.514111 -0.000000 0.196863 0.166753 -0.101702 -53.776033 298.411077 -0.000000 0.394784 0.443154 -0.359308
2.685000 -72.728919 -458.035647 -0.000000 0.191102 0.172041 -0.104673 -51.443803 348.767167 -0.000000 0.400010 0.437537 -0.359703
2.690000 -91.709392 -472.301883 -0.000000 0.186040 0.177845 -0.103623 -50.482611 401.638070 -0.000000 0.405041 0.431343 -0.359980
2.695000 -104.519565 -470.265048 -0.000000 0.180244 0.184245 -0.103383 -50.015909 456.376280 -0.000000 0.409550 0.424682 -0.359836
2.700000 -110.484305 -453.726878 -0.000000 0.174357 0.191422 -0.103286 -49.540811 512.330658 -0.000000 0.413841 0.417222 -0.359762
2.705000 -108.838815 -425.281271 -0.000000 0.168507 0.199164 -0.103310 -48.930015 568.834837 -0.000000 0.417837 0.409075 -0.359961
2.710000 -100.263675 -387.791535 -0.000000 0.162056 0.207511 -0.104316 -46.809483 625.232832 -0.000000 0.421521 0.400402 -0.359990
2.715000 -84.188138 -344.813888 -0.000000 0.156919 0.216317 -0.104325 -44.754103 680.459268 -0.000000 0.424902 0.391246 -0.359746
2.720000 -62.494910 -299.306333 -0.000000 0.152222 0.225425 -0.104442 -41.989085 733.563455 -0.000000 0.427834 0.381842 -0.359587
2.725000 -37.324580 -253.951738 -0.000000 0.148128 0.235055 -0.104455 -37.431588 783.701791 -0.000000 0.430405 0.372020 -0.359512
2.730000 -10.066499 -211.140372 -0.000000 0.144814 0.244846 -0.104383 -32.283354 830.175708 -0.000000 0.432583 0.361951 -0.359400
2.735000 17.201655 -172.607176 -0.000000 0.141891 0.255019 -0.104406 -25.397237 872.707403 -0.000000 0.434457 0.351523 -0.359365
2.740000 43.130109 -139.566551 -0.000000 0.139751 0.265537 -0.104444 -17.200962 911.181209 -0.000000 0.436053 0.340703 -0.359444
2.745000 66.784989 -112.439132 -0.000000 0.138351 0.275971 -0.104378 -10.119788 945.633968 -0.000000 0.437279 0.329857 -0.359583
2.750000 87.139131 -91.067283 -0.000000 0.137490 0.286517 -0.104623 -5.315409 976.382071 -0.000000 0.438012 0.319434 -0.359611
2.755000 103.338380 -75.155174 -0.000000 0.137426 0.297053 -0.104765 -2.214490 1004.094235 -0.000000 0.438224 0.308971 -0.359288
2.760000 114.959344 -64.340125 -0.000000 0.138057 0.307465 -0.105088 -0.801141 1029.809476 -0.000000 0.438069 0.298325 -0.359208
2.765000 121.803890 -58.288033 -0.000000 0.139372 0.317772 -0.105295 -1.199180 1054.823987 -0.000000 0.437477 0.287549 -0.359155
2.770000 123.704447 -56.794783 -0.000000 0.141252 0.328069 -0.105387 -2.397758 1080.475665 -0.000000 0.436287 0.276543 -0.358793
2.775000 120.625241 -59.357225 -0.000000 0.143933 0.338290 -0.105574 -5.175311 1107.936887 -0.000000 0.434487 0.265698 -0.358684
2.780000 112.531575 -65.449044 -0.000000 0.147285 0.348172 -0.105797 -9.279235 1138.068585 -0.000000 0.432003 0.254948 -0.358642
2.785000 99.475018 -74.444826 -0.000000 0.151380 0.357830 -0.106093 -13.918042 1171.343241 -0.000000 0.428923 0.244484 -0.358520
2.790000 81.592441 -85.647075 -0.000000 0.156188 0.367355 -0.106302 -17.412395 1207.838167 -0.000000 0.425194 0.234264 -0.358370
2.795000 59.310266 -98.129342 -0.000000 0.161508 0.376574 -0.106617 -19.779017 1247.165201 -0.000000 0.420975 0.224284 -0.358375
2.800000 33.145017 -111.044354 -0.000000 0.167493 0.385557 -0.106810 -18.869780 1288.329238 -0.000000 0.416144 0.214569 -0.358317
2.805000 3.902753 -123.443401 -0.000000 0.174126 0.394404 -0.107294 -12.736879 1329.490277 -0.000000 0.410762 0.205162 -0.358181
2.810000 -27.135452 -134.400200 -0.000000 0.181120 0.402893 -0.107611 -1.594257 1368.088642 -0.000000 0.404977 0.196053 -0.358065
2.815000 -58.545370 -143.160338 -0.000000 0.188706 0.410873 -0.107869 15.044754 1401.345003 -0.000000 0.398718 0.187509 -0.357869
2.820000 -88.853809 -149.097344 -0.000000 0.196674 0.418375 -0.108138 37.750860 1426.628995 -0.000000 0.391982 0.179298 -0.357682
2.825000 -116.456187 -151.881913 -0.000000 0.204814 0.425631 -0.108508 64.901444 1441.724051 -0.000000 0.384983 0.171511 -0.357575
2.830000 -140.102650 -151.330430 -0.000000 0.213385 0.432447 -0.108877 95.768135 1444.865230 -0.000000 0.377579 0.164397 -0.357498
2.835000 -158.773100 -147.512191 -0.000000 0.221951 0.438942 -0.109334 128.012147 1434.864937 -0.000000 0.369850 0.157767 -0.357430
2.840000 -172.182231 -140.215138 -0.000000 0.231185 0.445012 -0.109112 162.211360 1410.768412 -0.000000 0.361879 0.151661 -0.357510
2.845000 -179.676707 -130.174666 -0.000000 0.239795 0.450510 -0.109984 191.096371 1373.010069 -0.000000 0.353768 0.146168 -0.357371
2.850000 -182.030299 -116.915211 -0.000000 0.248722 0.455703 -0.110352 217.868868 1321.445886 -0.000000 0.345451 0.141298 -0.357237
2.855000 -179.713019 -100.822867 -0.000000 0.257685 0.460248 -0.110529 239.723728 1257.196388 -0.000000 0.337052 0.136823 -0.357379
2.860000 -173.611267 -82.088230 -0.000000 0.266919 0.464263 -0.110986 256.740088 1181.483120 -0.000000 0.328561 0.133027 -0.357334
2.865000 -164.596602 -61.124242 -0.000000 0.276530 0.467532 -0.111122 268.627830 1096.081255 -0.000000 0.320030 0.129685 -0.357216
2.870000 -153.434336 -38.663415 -0.000000 0.286012 0.470409 -0.111238 273.753700 1003.678609 -0.000000 0.311430 0.127205 -0.356862
2.875000 -140.952528 -15.025532 -0.000000 0.295641 0.472715 -0.111410 273.503547 906.720951 -0.000000 0.302720 0.125388 -0.356715
2.880000 -127.762155 9.156504 -0.000000 0.304898 0.474406 -0.111363 267.285842 808.480495 -0.000000 0.293907 0.124312 -0.356857
2.885000 -114.340891 33.772243 -0.000000 0.314339 0.475530 -0.111509 257.898336 711.117734 -0.000000 0.284877 0.124000 -0.356730
2.890000 -101.041319 58.279249 -0.000000 0.323405 0.476165 -0.111624 245.213616 617.265995 -0.000000 0.275662 0.124473 -0.356595
2.895000 -88.073520 82.549689 -0.000000 0.332341 0.476322 -0.111546 230.942451 528.115446 -0.000000 0.266224 0.125521 -0.356445
2.900000 -75.667178 106.524015 -0.000000 0.340885 0.475563 -0.111361 215.564880 444.310275 -0.000000 0.256764 0.127280 -0.356288
2.905000 -63.968376 130.564043 -0.000000 0.349094 0.474262 -0.111141 199.751611 365.421005 -0.000000 0.247416 0.129634 -0.356107
2.910000 -53.051619 155.384364 -0.000000 0.356815 0.472326 -0.110922 183.908920 290.338198 -0.000000 0.238174 0.132550 -0.356058
2.915000 -42.854881 181.921207 -0.000000 0.364051 0.469350 -0.110909 168.285216 217.587142 -0.000000 0.229182 0.136070 -0.356026
2.920000 -33.245386 211.049193 -0.000000 0.371219 0.466009 -0.110293 152.803525 145.851269 -0.000000 0.220524 0.140187 -0.355928
